<?xml version="1.0" encoding="UTF-8" standalone="yes"?>
<!-- Created with qrencode 3.4.4 (http://fukuchi.org/works/qrencode/index.html.en) -->
<svg width="4.15cm" height="4.15cm" viewBox="0 0 49 49" preserveAspectRatio="none" version="1.1" xmlns="http://www.w3.org/2000/svg">
	<g id="QRcode">
		<rect x="0" y="0" width="49" height="49" fill="#ffffff" />
		<g id="Pattern">
			<rect x="4" y="4" width="7" height="1" fill="#000000" />
			<rect x="13" y="4" width="2" height="1" fill="#000000" />
			<rect x="20" y="4" width="1" height="1" fill="#000000" />
			<rect x="23" y="4" width="5" height="1" fill="#000000" />
			<rect x="29" y="4" width="1" height="1" fill="#000000" />
			<rect x="32" y="4" width="1" height="1" fill="#000000" />
			<rect x="34" y="4" width="2" height="1" fill="#000000" />
			<rect x="38" y="4" width="7" height="1" fill="#000000" />
			<rect x="4" y="5" width="1" height="1" fill="#000000" />
			<rect x="10" y="5" width="1" height="1" fill="#000000" />
			<rect x="13" y="5" width="1" height="1" fill="#000000" />
			<rect x="15" y="5" width="3" height="1" fill="#000000" />
			<rect x="19" y="5" width="3" height="1" fill="#000000" />
			<rect x="30" y="5" width="1" height="1" fill="#000000" />
			<rect x="32" y="5" width="2" height="1" fill="#000000" />
			<rect x="38" y="5" width="1" height="1" fill="#000000" />
			<rect x="44" y="5" width="1" height="1" fill="#000000" />
			<rect x="4" y="6" width="1" height="1" fill="#000000" />
			<rect x="6" y="6" width="3" height="1" fill="#000000" />
			<rect x="10" y="6" width="1" height="1" fill="#000000" />
			<rect x="16" y="6" width="1" height="1" fill="#000000" />
			<rect x="18" y="6" width="1" height="1" fill="#000000" />
			<rect x="21" y="6" width="1" height="1" fill="#000000" />
			<rect x="23" y="6" width="4" height="1" fill="#000000" />
			<rect x="31" y="6" width="1" height="1" fill="#000000" />
			<rect x="33" y="6" width="3" height="1" fill="#000000" />
			<rect x="38" y="6" width="1" height="1" fill="#000000" />
			<rect x="40" y="6" width="3" height="1" fill="#000000" />
			<rect x="44" y="6" width="1" height="1" fill="#000000" />
			<rect x="4" y="7" width="1" height="1" fill="#000000" />
			<rect x="6" y="7" width="3" height="1" fill="#000000" />
			<rect x="10" y="7" width="1" height="1" fill="#000000" />
			<rect x="16" y="7" width="2" height="1" fill="#000000" />
			<rect x="19" y="7" width="3" height="1" fill="#000000" />
			<rect x="23" y="7" width="5" height="1" fill="#000000" />
			<rect x="29" y="7" width="1" height="1" fill="#000000" />
			<rect x="31" y="7" width="3" height="1" fill="#000000" />
			<rect x="35" y="7" width="1" height="1" fill="#000000" />
			<rect x="38" y="7" width="1" height="1" fill="#000000" />
			<rect x="40" y="7" width="3" height="1" fill="#000000" />
			<rect x="44" y="7" width="1" height="1" fill="#000000" />
			<rect x="4" y="8" width="1" height="1" fill="#000000" />
			<rect x="6" y="8" width="3" height="1" fill="#000000" />
			<rect x="10" y="8" width="1" height="1" fill="#000000" />
			<rect x="14" y="8" width="1" height="1" fill="#000000" />
			<rect x="18" y="8" width="1" height="1" fill="#000000" />
			<rect x="24" y="8" width="1" height="1" fill="#000000" />
			<rect x="29" y="8" width="2" height="1" fill="#000000" />
			<rect x="33" y="8" width="2" height="1" fill="#000000" />
			<rect x="38" y="8" width="1" height="1" fill="#000000" />
			<rect x="40" y="8" width="3" height="1" fill="#000000" />
			<rect x="44" y="8" width="1" height="1" fill="#000000" />
			<rect x="4" y="9" width="1" height="1" fill="#000000" />
			<rect x="10" y="9" width="1" height="1" fill="#000000" />
			<rect x="12" y="9" width="3" height="1" fill="#000000" />
			<rect x="20" y="9" width="2" height="1" fill="#000000" />
			<rect x="23" y="9" width="5" height="1" fill="#000000" />
			<rect x="29" y="9" width="3" height="1" fill="#000000" />
			<rect x="33" y="9" width="4" height="1" fill="#000000" />
			<rect x="38" y="9" width="1" height="1" fill="#000000" />
			<rect x="44" y="9" width="1" height="1" fill="#000000" />
			<rect x="4" y="10" width="7" height="1" fill="#000000" />
			<rect x="12" y="10" width="1" height="1" fill="#000000" />
			<rect x="14" y="10" width="1" height="1" fill="#000000" />
			<rect x="16" y="10" width="1" height="1" fill="#000000" />
			<rect x="18" y="10" width="1" height="1" fill="#000000" />
			<rect x="20" y="10" width="1" height="1" fill="#000000" />
			<rect x="22" y="10" width="1" height="1" fill="#000000" />
			<rect x="24" y="10" width="1" height="1" fill="#000000" />
			<rect x="26" y="10" width="1" height="1" fill="#000000" />
			<rect x="28" y="10" width="1" height="1" fill="#000000" />
			<rect x="30" y="10" width="1" height="1" fill="#000000" />
			<rect x="32" y="10" width="1" height="1" fill="#000000" />
			<rect x="34" y="10" width="1" height="1" fill="#000000" />
			<rect x="36" y="10" width="1" height="1" fill="#000000" />
			<rect x="38" y="10" width="7" height="1" fill="#000000" />
			<rect x="15" y="11" width="1" height="1" fill="#000000" />
			<rect x="19" y="11" width="4" height="1" fill="#000000" />
			<rect x="25" y="11" width="1" height="1" fill="#000000" />
			<rect x="31" y="11" width="1" height="1" fill="#000000" />
			<rect x="33" y="11" width="2" height="1" fill="#000000" />
			<rect x="36" y="11" width="1" height="1" fill="#000000" />
			<rect x="4" y="12" width="1" height="1" fill="#000000" />
			<rect x="7" y="12" width="1" height="1" fill="#000000" />
			<rect x="9" y="12" width="2" height="1" fill="#000000" />
			<rect x="12" y="12" width="1" height="1" fill="#000000" />
			<rect x="14" y="12" width="2" height="1" fill="#000000" />
			<rect x="17" y="12" width="4" height="1" fill="#000000" />
			<rect x="22" y="12" width="1" height="1" fill="#000000" />
			<rect x="25" y="12" width="1" height="1" fill="#000000" />
			<rect x="27" y="12" width="3" height="1" fill="#000000" />
			<rect x="34" y="12" width="2" height="1" fill="#000000" />
			<rect x="37" y="12" width="1" height="1" fill="#000000" />
			<rect x="39" y="12" width="1" height="1" fill="#000000" />
			<rect x="5" y="13" width="3" height="1" fill="#000000" />
			<rect x="9" y="13" width="1" height="1" fill="#000000" />
			<rect x="14" y="13" width="1" height="1" fill="#000000" />
			<rect x="16" y="13" width="2" height="1" fill="#000000" />
			<rect x="19" y="13" width="2" height="1" fill="#000000" />
			<rect x="23" y="13" width="1" height="1" fill="#000000" />
			<rect x="25" y="13" width="1" height="1" fill="#000000" />
			<rect x="28" y="13" width="2" height="1" fill="#000000" />
			<rect x="32" y="13" width="1" height="1" fill="#000000" />
			<rect x="42" y="13" width="3" height="1" fill="#000000" />
			<rect x="5" y="14" width="2" height="1" fill="#000000" />
			<rect x="8" y="14" width="4" height="1" fill="#000000" />
			<rect x="13" y="14" width="1" height="1" fill="#000000" />
			<rect x="15" y="14" width="1" height="1" fill="#000000" />
			<rect x="19" y="14" width="1" height="1" fill="#000000" />
			<rect x="21" y="14" width="6" height="1" fill="#000000" />
			<rect x="28" y="14" width="3" height="1" fill="#000000" />
			<rect x="33" y="14" width="1" height="1" fill="#000000" />
			<rect x="35" y="14" width="2" height="1" fill="#000000" />
			<rect x="39" y="14" width="1" height="1" fill="#000000" />
			<rect x="43" y="14" width="2" height="1" fill="#000000" />
			<rect x="4" y="15" width="1" height="1" fill="#000000" />
			<rect x="6" y="15" width="2" height="1" fill="#000000" />
			<rect x="9" y="15" width="1" height="1" fill="#000000" />
			<rect x="11" y="15" width="2" height="1" fill="#000000" />
			<rect x="15" y="15" width="1" height="1" fill="#000000" />
			<rect x="17" y="15" width="2" height="1" fill="#000000" />
			<rect x="20" y="15" width="2" height="1" fill="#000000" />
			<rect x="24" y="15" width="1" height="1" fill="#000000" />
			<rect x="26" y="15" width="1" height="1" fill="#000000" />
			<rect x="29" y="15" width="4" height="1" fill="#000000" />
			<rect x="36" y="15" width="2" height="1" fill="#000000" />
			<rect x="39" y="15" width="1" height="1" fill="#000000" />
			<rect x="42" y="15" width="3" height="1" fill="#000000" />
			<rect x="6" y="16" width="2" height="1" fill="#000000" />
			<rect x="9" y="16" width="2" height="1" fill="#000000" />
			<rect x="15" y="16" width="1" height="1" fill="#000000" />
			<rect x="21" y="16" width="2" height="1" fill="#000000" />
			<rect x="24" y="16" width="2" height="1" fill="#000000" />
			<rect x="27" y="16" width="1" height="1" fill="#000000" />
			<rect x="32" y="16" width="1" height="1" fill="#000000" />
			<rect x="35" y="16" width="2" height="1" fill="#000000" />
			<rect x="38" y="16" width="1" height="1" fill="#000000" />
			<rect x="40" y="16" width="2" height="1" fill="#000000" />
			<rect x="43" y="16" width="2" height="1" fill="#000000" />
			<rect x="4" y="17" width="1" height="1" fill="#000000" />
			<rect x="7" y="17" width="2" height="1" fill="#000000" />
			<rect x="11" y="17" width="3" height="1" fill="#000000" />
			<rect x="16" y="17" width="1" height="1" fill="#000000" />
			<rect x="18" y="17" width="2" height="1" fill="#000000" />
			<rect x="21" y="17" width="2" height="1" fill="#000000" />
			<rect x="24" y="17" width="4" height="1" fill="#000000" />
			<rect x="30" y="17" width="2" height="1" fill="#000000" />
			<rect x="33" y="17" width="1" height="1" fill="#000000" />
			<rect x="39" y="17" width="1" height="1" fill="#000000" />
			<rect x="43" y="17" width="1" height="1" fill="#000000" />
			<rect x="5" y="18" width="1" height="1" fill="#000000" />
			<rect x="7" y="18" width="1" height="1" fill="#000000" />
			<rect x="10" y="18" width="1" height="1" fill="#000000" />
			<rect x="13" y="18" width="1" height="1" fill="#000000" />
			<rect x="15" y="18" width="1" height="1" fill="#000000" />
			<rect x="20" y="18" width="1" height="1" fill="#000000" />
			<rect x="23" y="18" width="1" height="1" fill="#000000" />
			<rect x="25" y="18" width="1" height="1" fill="#000000" />
			<rect x="27" y="18" width="1" height="1" fill="#000000" />
			<rect x="29" y="18" width="2" height="1" fill="#000000" />
			<rect x="32" y="18" width="1" height="1" fill="#000000" />
			<rect x="35" y="18" width="1" height="1" fill="#000000" />
			<rect x="37" y="18" width="2" height="1" fill="#000000" />
			<rect x="40" y="18" width="1" height="1" fill="#000000" />
			<rect x="43" y="18" width="2" height="1" fill="#000000" />
			<rect x="5" y="19" width="3" height="1" fill="#000000" />
			<rect x="11" y="19" width="3" height="1" fill="#000000" />
			<rect x="18" y="19" width="1" height="1" fill="#000000" />
			<rect x="24" y="19" width="2" height="1" fill="#000000" />
			<rect x="27" y="19" width="1" height="1" fill="#000000" />
			<rect x="36" y="19" width="1" height="1" fill="#000000" />
			<rect x="39" y="19" width="1" height="1" fill="#000000" />
			<rect x="41" y="19" width="1" height="1" fill="#000000" />
			<rect x="43" y="19" width="2" height="1" fill="#000000" />
			<rect x="4" y="20" width="2" height="1" fill="#000000" />
			<rect x="10" y="20" width="2" height="1" fill="#000000" />
			<rect x="13" y="20" width="1" height="1" fill="#000000" />
			<rect x="15" y="20" width="2" height="1" fill="#000000" />
			<rect x="18" y="20" width="2" height="1" fill="#000000" />
			<rect x="21" y="20" width="1" height="1" fill="#000000" />
			<rect x="32" y="20" width="2" height="1" fill="#000000" />
			<rect x="37" y="20" width="1" height="1" fill="#000000" />
			<rect x="39" y="20" width="1" height="1" fill="#000000" />
			<rect x="42" y="20" width="1" height="1" fill="#000000" />
			<rect x="7" y="21" width="1" height="1" fill="#000000" />
			<rect x="11" y="21" width="2" height="1" fill="#000000" />
			<rect x="14" y="21" width="1" height="1" fill="#000000" />
			<rect x="16" y="21" width="2" height="1" fill="#000000" />
			<rect x="19" y="21" width="5" height="1" fill="#000000" />
			<rect x="25" y="21" width="4" height="1" fill="#000000" />
			<rect x="30" y="21" width="1" height="1" fill="#000000" />
			<rect x="32" y="21" width="1" height="1" fill="#000000" />
			<rect x="34" y="21" width="2" height="1" fill="#000000" />
			<rect x="38" y="21" width="2" height="1" fill="#000000" />
			<rect x="42" y="21" width="2" height="1" fill="#000000" />
			<rect x="6" y="22" width="1" height="1" fill="#000000" />
			<rect x="8" y="22" width="1" height="1" fill="#000000" />
			<rect x="10" y="22" width="1" height="1" fill="#000000" />
			<rect x="12" y="22" width="3" height="1" fill="#000000" />
			<rect x="16" y="22" width="2" height="1" fill="#000000" />
			<rect x="20" y="22" width="2" height="1" fill="#000000" />
			<rect x="23" y="22" width="1" height="1" fill="#000000" />
			<rect x="26" y="22" width="2" height="1" fill="#000000" />
			<rect x="29" y="22" width="1" height="1" fill="#000000" />
			<rect x="32" y="22" width="1" height="1" fill="#000000" />
			<rect x="34" y="22" width="2" height="1" fill="#000000" />
			<rect x="37" y="22" width="4" height="1" fill="#000000" />
			<rect x="44" y="22" width="1" height="1" fill="#000000" />
			<rect x="4" y="23" width="4" height="1" fill="#000000" />
			<rect x="9" y="23" width="1" height="1" fill="#000000" />
			<rect x="11" y="23" width="1" height="1" fill="#000000" />
			<rect x="13" y="23" width="1" height="1" fill="#000000" />
			<rect x="17" y="23" width="1" height="1" fill="#000000" />
			<rect x="19" y="23" width="1" height="1" fill="#000000" />
			<rect x="23" y="23" width="1" height="1" fill="#000000" />
			<rect x="25" y="23" width="1" height="1" fill="#000000" />
			<rect x="27" y="23" width="3" height="1" fill="#000000" />
			<rect x="33" y="23" width="3" height="1" fill="#000000" />
			<rect x="39" y="23" width="1" height="1" fill="#000000" />
			<rect x="42" y="23" width="3" height="1" fill="#000000" />
			<rect x="4" y="24" width="2" height="1" fill="#000000" />
			<rect x="10" y="24" width="3" height="1" fill="#000000" />
			<rect x="15" y="24" width="4" height="1" fill="#000000" />
			<rect x="21" y="24" width="1" height="1" fill="#000000" />
			<rect x="24" y="24" width="1" height="1" fill="#000000" />
			<rect x="26" y="24" width="3" height="1" fill="#000000" />
			<rect x="30" y="24" width="1" height="1" fill="#000000" />
			<rect x="32" y="24" width="1" height="1" fill="#000000" />
			<rect x="34" y="24" width="1" height="1" fill="#000000" />
			<rect x="37" y="24" width="1" height="1" fill="#000000" />
			<rect x="39" y="24" width="1" height="1" fill="#000000" />
			<rect x="41" y="24" width="1" height="1" fill="#000000" />
			<rect x="4" y="25" width="1" height="1" fill="#000000" />
			<rect x="6" y="25" width="2" height="1" fill="#000000" />
			<rect x="9" y="25" width="1" height="1" fill="#000000" />
			<rect x="11" y="25" width="1" height="1" fill="#000000" />
			<rect x="13" y="25" width="3" height="1" fill="#000000" />
			<rect x="17" y="25" width="3" height="1" fill="#000000" />
			<rect x="23" y="25" width="1" height="1" fill="#000000" />
			<rect x="26" y="25" width="1" height="1" fill="#000000" />
			<rect x="28" y="25" width="1" height="1" fill="#000000" />
			<rect x="37" y="25" width="3" height="1" fill="#000000" />
			<rect x="41" y="25" width="1" height="1" fill="#000000" />
			<rect x="43" y="25" width="2" height="1" fill="#000000" />
			<rect x="4" y="26" width="4" height="1" fill="#000000" />
			<rect x="10" y="26" width="1" height="1" fill="#000000" />
			<rect x="12" y="26" width="2" height="1" fill="#000000" />
			<rect x="16" y="26" width="1" height="1" fill="#000000" />
			<rect x="19" y="26" width="2" height="1" fill="#000000" />
			<rect x="22" y="26" width="5" height="1" fill="#000000" />
			<rect x="28" y="26" width="1" height="1" fill="#000000" />
			<rect x="31" y="26" width="3" height="1" fill="#000000" />
			<rect x="36" y="26" width="2" height="1" fill="#000000" />
			<rect x="39" y="26" width="1" height="1" fill="#000000" />
			<rect x="41" y="26" width="1" height="1" fill="#000000" />
			<rect x="43" y="26" width="1" height="1" fill="#000000" />
			<rect x="4" y="27" width="2" height="1" fill="#000000" />
			<rect x="7" y="27" width="2" height="1" fill="#000000" />
			<rect x="12" y="27" width="3" height="1" fill="#000000" />
			<rect x="17" y="27" width="2" height="1" fill="#000000" />
			<rect x="20" y="27" width="2" height="1" fill="#000000" />
			<rect x="23" y="27" width="1" height="1" fill="#000000" />
			<rect x="25" y="27" width="1" height="1" fill="#000000" />
			<rect x="29" y="27" width="1" height="1" fill="#000000" />
			<rect x="32" y="27" width="1" height="1" fill="#000000" />
			<rect x="34" y="27" width="2" height="1" fill="#000000" />
			<rect x="37" y="27" width="2" height="1" fill="#000000" />
			<rect x="40" y="27" width="4" height="1" fill="#000000" />
			<rect x="8" y="28" width="3" height="1" fill="#000000" />
			<rect x="13" y="28" width="1" height="1" fill="#000000" />
			<rect x="15" y="28" width="1" height="1" fill="#000000" />
			<rect x="17" y="28" width="4" height="1" fill="#000000" />
			<rect x="25" y="28" width="5" height="1" fill="#000000" />
			<rect x="33" y="28" width="1" height="1" fill="#000000" />
			<rect x="35" y="28" width="1" height="1" fill="#000000" />
			<rect x="37" y="28" width="3" height="1" fill="#000000" />
			<rect x="42" y="28" width="3" height="1" fill="#000000" />
			<rect x="4" y="29" width="1" height="1" fill="#000000" />
			<rect x="7" y="29" width="2" height="1" fill="#000000" />
			<rect x="12" y="29" width="2" height="1" fill="#000000" />
			<rect x="16" y="29" width="1" height="1" fill="#000000" />
			<rect x="19" y="29" width="2" height="1" fill="#000000" />
			<rect x="23" y="29" width="1" height="1" fill="#000000" />
			<rect x="25" y="29" width="2" height="1" fill="#000000" />
			<rect x="28" y="29" width="1" height="1" fill="#000000" />
			<rect x="34" y="29" width="2" height="1" fill="#000000" />
			<rect x="38" y="29" width="2" height="1" fill="#000000" />
			<rect x="41" y="29" width="1" height="1" fill="#000000" />
			<rect x="44" y="29" width="1" height="1" fill="#000000" />
			<rect x="4" y="30" width="1" height="1" fill="#000000" />
			<rect x="6" y="30" width="1" height="1" fill="#000000" />
			<rect x="8" y="30" width="1" height="1" fill="#000000" />
			<rect x="10" y="30" width="2" height="1" fill="#000000" />
			<rect x="14" y="30" width="1" height="1" fill="#000000" />
			<rect x="17" y="30" width="3" height="1" fill="#000000" />
			<rect x="23" y="30" width="1" height="1" fill="#000000" />
			<rect x="27" y="30" width="1" height="1" fill="#000000" />
			<rect x="30" y="30" width="1" height="1" fill="#000000" />
			<rect x="33" y="30" width="1" height="1" fill="#000000" />
			<rect x="38" y="30" width="1" height="1" fill="#000000" />
			<rect x="43" y="30" width="2" height="1" fill="#000000" />
			<rect x="4" y="31" width="1" height="1" fill="#000000" />
			<rect x="7" y="31" width="1" height="1" fill="#000000" />
			<rect x="9" y="31" width="1" height="1" fill="#000000" />
			<rect x="11" y="31" width="2" height="1" fill="#000000" />
			<rect x="15" y="31" width="1" height="1" fill="#000000" />
			<rect x="19" y="31" width="3" height="1" fill="#000000" />
			<rect x="24" y="31" width="1" height="1" fill="#000000" />
			<rect x="28" y="31" width="1" height="1" fill="#000000" />
			<rect x="32" y="31" width="1" height="1" fill="#000000" />
			<rect x="35" y="31" width="1" height="1" fill="#000000" />
			<rect x="37" y="31" width="2" height="1" fill="#000000" />
			<rect x="43" y="31" width="2" height="1" fill="#000000" />
			<rect x="4" y="32" width="1" height="1" fill="#000000" />
			<rect x="6" y="32" width="1" height="1" fill="#000000" />
			<rect x="8" y="32" width="4" height="1" fill="#000000" />
			<rect x="15" y="32" width="3" height="1" fill="#000000" />
			<rect x="19" y="32" width="1" height="1" fill="#000000" />
			<rect x="23" y="32" width="1" height="1" fill="#000000" />
			<rect x="25" y="32" width="1" height="1" fill="#000000" />
			<rect x="27" y="32" width="2" height="1" fill="#000000" />
			<rect x="31" y="32" width="1" height="1" fill="#000000" />
			<rect x="33" y="32" width="2" height="1" fill="#000000" />
			<rect x="36" y="32" width="1" height="1" fill="#000000" />
			<rect x="38" y="32" width="1" height="1" fill="#000000" />
			<rect x="40" y="32" width="1" height="1" fill="#000000" />
			<rect x="43" y="32" width="1" height="1" fill="#000000" />
			<rect x="8" y="33" width="2" height="1" fill="#000000" />
			<rect x="12" y="33" width="1" height="1" fill="#000000" />
			<rect x="15" y="33" width="1" height="1" fill="#000000" />
			<rect x="17" y="33" width="1" height="1" fill="#000000" />
			<rect x="20" y="33" width="1" height="1" fill="#000000" />
			<rect x="23" y="33" width="4" height="1" fill="#000000" />
			<rect x="28" y="33" width="2" height="1" fill="#000000" />
			<rect x="31" y="33" width="1" height="1" fill="#000000" />
			<rect x="37" y="33" width="1" height="1" fill="#000000" />
			<rect x="40" y="33" width="4" height="1" fill="#000000" />
			<rect x="4" y="34" width="1" height="1" fill="#000000" />
			<rect x="9" y="34" width="3" height="1" fill="#000000" />
			<rect x="13" y="34" width="1" height="1" fill="#000000" />
			<rect x="15" y="34" width="2" height="1" fill="#000000" />
			<rect x="21" y="34" width="1" height="1" fill="#000000" />
			<rect x="25" y="34" width="1" height="1" fill="#000000" />
			<rect x="27" y="34" width="3" height="1" fill="#000000" />
			<rect x="32" y="34" width="2" height="1" fill="#000000" />
			<rect x="36" y="34" width="3" height="1" fill="#000000" />
			<rect x="40" y="34" width="1" height="1" fill="#000000" />
			<rect x="43" y="34" width="1" height="1" fill="#000000" />
			<rect x="6" y="35" width="1" height="1" fill="#000000" />
			<rect x="8" y="35" width="1" height="1" fill="#000000" />
			<rect x="14" y="35" width="6" height="1" fill="#000000" />
			<rect x="26" y="35" width="1" height="1" fill="#000000" />
			<rect x="28" y="35" width="1" height="1" fill="#000000" />
			<rect x="31" y="35" width="4" height="1" fill="#000000" />
			<rect x="36" y="35" width="3" height="1" fill="#000000" />
			<rect x="44" y="35" width="1" height="1" fill="#000000" />
			<rect x="4" y="36" width="1" height="1" fill="#000000" />
			<rect x="8" y="36" width="3" height="1" fill="#000000" />
			<rect x="12" y="36" width="3" height="1" fill="#000000" />
			<rect x="16" y="36" width="2" height="1" fill="#000000" />
			<rect x="21" y="36" width="2" height="1" fill="#000000" />
			<rect x="24" y="36" width="1" height="1" fill="#000000" />
			<rect x="28" y="36" width="1" height="1" fill="#000000" />
			<rect x="31" y="36" width="1" height="1" fill="#000000" />
			<rect x="34" y="36" width="7" height="1" fill="#000000" />
			<rect x="42" y="36" width="1" height="1" fill="#000000" />
			<rect x="44" y="36" width="1" height="1" fill="#000000" />
			<rect x="12" y="37" width="3" height="1" fill="#000000" />
			<rect x="16" y="37" width="3" height="1" fill="#000000" />
			<rect x="21" y="37" width="1" height="1" fill="#000000" />
			<rect x="23" y="37" width="2" height="1" fill="#000000" />
			<rect x="26" y="37" width="6" height="1" fill="#000000" />
			<rect x="33" y="37" width="1" height="1" fill="#000000" />
			<rect x="35" y="37" width="2" height="1" fill="#000000" />
			<rect x="40" y="37" width="1" height="1" fill="#000000" />
			<rect x="43" y="37" width="2" height="1" fill="#000000" />
			<rect x="4" y="38" width="7" height="1" fill="#000000" />
			<rect x="14" y="38" width="1" height="1" fill="#000000" />
			<rect x="17" y="38" width="1" height="1" fill="#000000" />
			<rect x="19" y="38" width="1" height="1" fill="#000000" />
			<rect x="22" y="38" width="10" height="1" fill="#000000" />
			<rect x="33" y="38" width="2" height="1" fill="#000000" />
			<rect x="36" y="38" width="1" height="1" fill="#000000" />
			<rect x="38" y="38" width="1" height="1" fill="#000000" />
			<rect x="40" y="38" width="1" height="1" fill="#000000" />
			<rect x="43" y="38" width="2" height="1" fill="#000000" />
			<rect x="4" y="39" width="1" height="1" fill="#000000" />
			<rect x="10" y="39" width="1" height="1" fill="#000000" />
			<rect x="12" y="39" width="1" height="1" fill="#000000" />
			<rect x="15" y="39" width="1" height="1" fill="#000000" />
			<rect x="19" y="39" width="1" height="1" fill="#000000" />
			<rect x="22" y="39" width="1" height="1" fill="#000000" />
			<rect x="27" y="39" width="3" height="1" fill="#000000" />
			<rect x="32" y="39" width="1" height="1" fill="#000000" />
			<rect x="35" y="39" width="2" height="1" fill="#000000" />
			<rect x="40" y="39" width="5" height="1" fill="#000000" />
			<rect x="4" y="40" width="1" height="1" fill="#000000" />
			<rect x="6" y="40" width="3" height="1" fill="#000000" />
			<rect x="10" y="40" width="1" height="1" fill="#000000" />
			<rect x="16" y="40" width="2" height="1" fill="#000000" />
			<rect x="19" y="40" width="1" height="1" fill="#000000" />
			<rect x="22" y="40" width="1" height="1" fill="#000000" />
			<rect x="24" y="40" width="1" height="1" fill="#000000" />
			<rect x="30" y="40" width="1" height="1" fill="#000000" />
			<rect x="32" y="40" width="1" height="1" fill="#000000" />
			<rect x="36" y="40" width="6" height="1" fill="#000000" />
			<rect x="43" y="40" width="2" height="1" fill="#000000" />
			<rect x="4" y="41" width="1" height="1" fill="#000000" />
			<rect x="6" y="41" width="3" height="1" fill="#000000" />
			<rect x="10" y="41" width="1" height="1" fill="#000000" />
			<rect x="12" y="41" width="3" height="1" fill="#000000" />
			<rect x="17" y="41" width="3" height="1" fill="#000000" />
			<rect x="22" y="41" width="1" height="1" fill="#000000" />
			<rect x="25" y="41" width="2" height="1" fill="#000000" />
			<rect x="30" y="41" width="4" height="1" fill="#000000" />
			<rect x="35" y="41" width="2" height="1" fill="#000000" />
			<rect x="38" y="41" width="4" height="1" fill="#000000" />
			<rect x="44" y="41" width="1" height="1" fill="#000000" />
			<rect x="4" y="42" width="1" height="1" fill="#000000" />
			<rect x="6" y="42" width="3" height="1" fill="#000000" />
			<rect x="10" y="42" width="1" height="1" fill="#000000" />
			<rect x="13" y="42" width="1" height="1" fill="#000000" />
			<rect x="19" y="42" width="1" height="1" fill="#000000" />
			<rect x="23" y="42" width="2" height="1" fill="#000000" />
			<rect x="26" y="42" width="4" height="1" fill="#000000" />
			<rect x="31" y="42" width="3" height="1" fill="#000000" />
			<rect x="35" y="42" width="1" height="1" fill="#000000" />
			<rect x="40" y="42" width="1" height="1" fill="#000000" />
			<rect x="42" y="42" width="1" height="1" fill="#000000" />
			<rect x="44" y="42" width="1" height="1" fill="#000000" />
			<rect x="4" y="43" width="1" height="1" fill="#000000" />
			<rect x="10" y="43" width="1" height="1" fill="#000000" />
			<rect x="14" y="43" width="2" height="1" fill="#000000" />
			<rect x="17" y="43" width="2" height="1" fill="#000000" />
			<rect x="20" y="43" width="2" height="1" fill="#000000" />
			<rect x="25" y="43" width="1" height="1" fill="#000000" />
			<rect x="27" y="43" width="1" height="1" fill="#000000" />
			<rect x="29" y="43" width="2" height="1" fill="#000000" />
			<rect x="32" y="43" width="2" height="1" fill="#000000" />
			<rect x="35" y="43" width="2" height="1" fill="#000000" />
			<rect x="38" y="43" width="2" height="1" fill="#000000" />
			<rect x="43" y="43" width="1" height="1" fill="#000000" />
			<rect x="4" y="44" width="7" height="1" fill="#000000" />
			<rect x="12" y="44" width="1" height="1" fill="#000000" />
			<rect x="14" y="44" width="7" height="1" fill="#000000" />
			<rect x="22" y="44" width="7" height="1" fill="#000000" />
			<rect x="31" y="44" width="1" height="1" fill="#000000" />
			<rect x="33" y="44" width="1" height="1" fill="#000000" />
			<rect x="36" y="44" width="1" height="1" fill="#000000" />
			<rect x="38" y="44" width="1" height="1" fill="#000000" />
			<rect x="40" y="44" width="2" height="1" fill="#000000" />
			<rect x="43" y="44" width="1" height="1" fill="#000000" />
		</g>
	</g>
</svg>
